<?xml version="1.0"?>
<svg xmlns="http://www.w3.org/2000/svg" xmlns:xlink="http://www.w3.org/1999/xlink" xmlns:svgjs="http://svgjs.com/svgjs" version="1.1" width="512" height="512" x="0" y="0" viewBox="0 0 44.776 44.776" style="enable-background:new 0 0 512 512" xml:space="preserve" class=""><g>
<g xmlns="http://www.w3.org/2000/svg">
	<g>
		<g>
			<path d="M39.776,12.766H5c-2.761,0-5-2.239-5-5s2.239-5,5-5h34.776c2.761,0,5,2.239,5,5S42.537,12.766,39.776,12.766z" fill="#f5f5f5" data-original="#000000" style="" class=""/>
		</g>
		<g>
			<path d="M39.776,27.388H5c-2.761,0-5-2.239-5-5c0-2.762,2.239-5,5-5h34.776c2.761,0,5,2.238,5,5     C44.776,25.149,42.537,27.388,39.776,27.388z" fill="#f5f5f5" data-original="#000000" style="" class=""/>
		</g>
		<g>
			<path d="M39.776,42.01H5c-2.761,0-5-2.239-5-5c0-2.762,2.239-5,5-5h34.776c2.761,0,5,2.238,5,5     C44.776,39.771,42.537,42.01,39.776,42.01z" fill="#f5f5f5" data-original="#000000" style="" class=""/>
		</g>
	</g>
</g>
<g xmlns="http://www.w3.org/2000/svg">
</g>
<g xmlns="http://www.w3.org/2000/svg">
</g>
<g xmlns="http://www.w3.org/2000/svg">
</g>
<g xmlns="http://www.w3.org/2000/svg">
</g>
<g xmlns="http://www.w3.org/2000/svg">
</g>
<g xmlns="http://www.w3.org/2000/svg">
</g>
<g xmlns="http://www.w3.org/2000/svg">
</g>
<g xmlns="http://www.w3.org/2000/svg">
</g>
<g xmlns="http://www.w3.org/2000/svg">
</g>
<g xmlns="http://www.w3.org/2000/svg">
</g>
<g xmlns="http://www.w3.org/2000/svg">
</g>
<g xmlns="http://www.w3.org/2000/svg">
</g>
<g xmlns="http://www.w3.org/2000/svg">
</g>
<g xmlns="http://www.w3.org/2000/svg">
</g>
<g xmlns="http://www.w3.org/2000/svg">
</g>
</g></svg>
